<mxfile host="app.diagrams.net" modified="2022-05-30T20:54:04.320Z" agent="5.0 (Windows NT 10.0; Win64; x64) AppleWebKit/537.36 (KHTML, like Gecko) Chrome/100.0.4896.136 Safari/537.36" etag="1bVVCDifICO5O0HQhfFV" version="18.0.2" type="github">
  <diagram id="-fW24uMB1CK-DhXoHvDs" name="Menu chinh">
    <mxGraphModel dx="994" dy="544" grid="1" gridSize="10" guides="1" tooltips="1" connect="1" arrows="1" fold="1" page="1" pageScale="1" pageWidth="827" pageHeight="1169" math="0" shadow="0">
      <root>
        <mxCell id="0" />
        <mxCell id="1" parent="0" />
        <mxCell id="VCm6Aq29OPenDq0uArzW-4" value="" style="rounded=0;orthogonalLoop=1;jettySize=auto;html=1;" edge="1" parent="1" source="VCm6Aq29OPenDq0uArzW-1" target="VCm6Aq29OPenDq0uArzW-3">
          <mxGeometry relative="1" as="geometry" />
        </mxCell>
        <mxCell id="VCm6Aq29OPenDq0uArzW-13" value="" style="edgeStyle=none;rounded=0;orthogonalLoop=1;jettySize=auto;html=1;" edge="1" parent="1" source="VCm6Aq29OPenDq0uArzW-1" target="VCm6Aq29OPenDq0uArzW-12">
          <mxGeometry relative="1" as="geometry" />
        </mxCell>
        <mxCell id="VCm6Aq29OPenDq0uArzW-17" value="" style="edgeStyle=none;rounded=0;orthogonalLoop=1;jettySize=auto;html=1;" edge="1" parent="1" source="VCm6Aq29OPenDq0uArzW-1" target="VCm6Aq29OPenDq0uArzW-16">
          <mxGeometry relative="1" as="geometry" />
        </mxCell>
        <mxCell id="VCm6Aq29OPenDq0uArzW-19" value="" style="edgeStyle=none;rounded=0;orthogonalLoop=1;jettySize=auto;html=1;" edge="1" parent="1" source="VCm6Aq29OPenDq0uArzW-1" target="VCm6Aq29OPenDq0uArzW-18">
          <mxGeometry relative="1" as="geometry" />
        </mxCell>
        <mxCell id="VCm6Aq29OPenDq0uArzW-21" value="" style="edgeStyle=none;rounded=0;orthogonalLoop=1;jettySize=auto;html=1;" edge="1" parent="1" source="VCm6Aq29OPenDq0uArzW-1" target="VCm6Aq29OPenDq0uArzW-20">
          <mxGeometry relative="1" as="geometry" />
        </mxCell>
        <mxCell id="VCm6Aq29OPenDq0uArzW-23" value="" style="edgeStyle=none;rounded=0;orthogonalLoop=1;jettySize=auto;html=1;" edge="1" parent="1" source="VCm6Aq29OPenDq0uArzW-1" target="VCm6Aq29OPenDq0uArzW-22">
          <mxGeometry relative="1" as="geometry" />
        </mxCell>
        <mxCell id="VCm6Aq29OPenDq0uArzW-25" value="" style="edgeStyle=none;rounded=0;orthogonalLoop=1;jettySize=auto;html=1;" edge="1" parent="1" source="VCm6Aq29OPenDq0uArzW-1" target="VCm6Aq29OPenDq0uArzW-24">
          <mxGeometry relative="1" as="geometry" />
        </mxCell>
        <mxCell id="VCm6Aq29OPenDq0uArzW-1" value="Người dùng" style="shape=umlActor;verticalLabelPosition=bottom;verticalAlign=top;html=1;outlineConnect=0;" vertex="1" parent="1">
          <mxGeometry x="345" y="210" width="30" height="60" as="geometry" />
        </mxCell>
        <mxCell id="VCm6Aq29OPenDq0uArzW-6" value="" style="edgeStyle=none;rounded=0;orthogonalLoop=1;jettySize=auto;html=1;" edge="1" parent="1" source="VCm6Aq29OPenDq0uArzW-3" target="VCm6Aq29OPenDq0uArzW-5">
          <mxGeometry relative="1" as="geometry" />
        </mxCell>
        <mxCell id="VCm6Aq29OPenDq0uArzW-8" value="" style="edgeStyle=none;rounded=0;orthogonalLoop=1;jettySize=auto;html=1;" edge="1" parent="1" source="VCm6Aq29OPenDq0uArzW-3" target="VCm6Aq29OPenDq0uArzW-7">
          <mxGeometry relative="1" as="geometry" />
        </mxCell>
        <mxCell id="VCm6Aq29OPenDq0uArzW-9" value="" style="edgeStyle=none;rounded=0;orthogonalLoop=1;jettySize=auto;html=1;" edge="1" parent="1" source="VCm6Aq29OPenDq0uArzW-3" target="VCm6Aq29OPenDq0uArzW-7">
          <mxGeometry relative="1" as="geometry" />
        </mxCell>
        <mxCell id="VCm6Aq29OPenDq0uArzW-11" value="" style="edgeStyle=none;rounded=0;orthogonalLoop=1;jettySize=auto;html=1;" edge="1" parent="1" source="VCm6Aq29OPenDq0uArzW-3" target="VCm6Aq29OPenDq0uArzW-10">
          <mxGeometry relative="1" as="geometry" />
        </mxCell>
        <mxCell id="VCm6Aq29OPenDq0uArzW-3" value="Chỉnh sửa thông tin" style="ellipse;whiteSpace=wrap;html=1;verticalAlign=middle;align=center;" vertex="1" parent="1">
          <mxGeometry x="475" y="150" width="120" height="60" as="geometry" />
        </mxCell>
        <mxCell id="VCm6Aq29OPenDq0uArzW-5" value="Tên" style="ellipse;whiteSpace=wrap;html=1;verticalAlign=middle;align=center;" vertex="1" parent="1">
          <mxGeometry x="645" y="100" width="120" height="60" as="geometry" />
        </mxCell>
        <mxCell id="VCm6Aq29OPenDq0uArzW-7" value="Số điện thoại" style="ellipse;whiteSpace=wrap;html=1;verticalAlign=middle;align=center;" vertex="1" parent="1">
          <mxGeometry x="645" y="180" width="120" height="60" as="geometry" />
        </mxCell>
        <mxCell id="VCm6Aq29OPenDq0uArzW-10" value="Vị trí" style="ellipse;whiteSpace=wrap;html=1;verticalAlign=middle;align=center;" vertex="1" parent="1">
          <mxGeometry x="645" y="260" width="120" height="60" as="geometry" />
        </mxCell>
        <mxCell id="VCm6Aq29OPenDq0uArzW-12" value="Thay ảnh đại diện" style="ellipse;whiteSpace=wrap;html=1;verticalAlign=middle;" vertex="1" parent="1">
          <mxGeometry x="475" y="260" width="120" height="60" as="geometry" />
        </mxCell>
        <mxCell id="VCm6Aq29OPenDq0uArzW-16" value="Thay background" style="ellipse;whiteSpace=wrap;html=1;verticalAlign=middle;" vertex="1" parent="1">
          <mxGeometry x="475" y="360" width="120" height="60" as="geometry" />
        </mxCell>
        <mxCell id="VCm6Aq29OPenDq0uArzW-18" value="Bắt đầu cuộc gọi" style="ellipse;whiteSpace=wrap;html=1;verticalAlign=middle;" vertex="1" parent="1">
          <mxGeometry x="300" y="390" width="120" height="60" as="geometry" />
        </mxCell>
        <mxCell id="VCm6Aq29OPenDq0uArzW-20" value="Thay nhạc chuông" style="ellipse;whiteSpace=wrap;html=1;verticalAlign=middle;" vertex="1" parent="1">
          <mxGeometry x="160" y="150" width="120" height="60" as="geometry" />
        </mxCell>
        <mxCell id="VCm6Aq29OPenDq0uArzW-22" value="Thay đổi audio phất ra khi nhận cuộc gọi" style="ellipse;whiteSpace=wrap;html=1;verticalAlign=middle;" vertex="1" parent="1">
          <mxGeometry x="300" y="70" width="120" height="60" as="geometry" />
        </mxCell>
        <mxCell id="VCm6Aq29OPenDq0uArzW-24" value="Cài thời gian thực hiện cuộc gọi" style="ellipse;whiteSpace=wrap;html=1;verticalAlign=middle;" vertex="1" parent="1">
          <mxGeometry x="160" y="260" width="120" height="60" as="geometry" />
        </mxCell>
      </root>
    </mxGraphModel>
  </diagram>
</mxfile>
